<mxfile host="app.diagrams.net" modified="2024-05-16T01:49:59.687Z" agent="Mozilla/5.0 (Windows NT 10.0; Win64; x64) AppleWebKit/537.36 (KHTML, like Gecko) Chrome/124.0.0.0 Safari/537.36 Edg/124.0.0.0" etag="-5zZNWKvaObiiieh3V9R" version="24.3.1" type="github">
  <diagram id="C5RBs43oDa-KdzZeNtuy" name="Page-1">
    <mxGraphModel dx="946" dy="605" grid="1" gridSize="10" guides="1" tooltips="1" connect="1" arrows="1" fold="1" page="1" pageScale="1" pageWidth="827" pageHeight="1169" math="0" shadow="0">
      <root>
        <mxCell id="WIyWlLk6GJQsqaUBKTNV-0" />
        <mxCell id="WIyWlLk6GJQsqaUBKTNV-1" parent="WIyWlLk6GJQsqaUBKTNV-0" />
        <mxCell id="fye8WJAWWEqY-p9hmPjA-0" value="结束" style="strokeWidth=2;html=1;shape=mxgraph.flowchart.terminator;whiteSpace=wrap;fontSize=13;" vertex="1" parent="WIyWlLk6GJQsqaUBKTNV-1">
          <mxGeometry x="190" y="600" width="70" height="40" as="geometry" />
        </mxCell>
        <mxCell id="fye8WJAWWEqY-p9hmPjA-2" value="开始" style="strokeWidth=2;html=1;shape=mxgraph.flowchart.terminator;whiteSpace=wrap;fontSize=13;" vertex="1" parent="WIyWlLk6GJQsqaUBKTNV-1">
          <mxGeometry x="190" y="70" width="70" height="40" as="geometry" />
        </mxCell>
        <mxCell id="fye8WJAWWEqY-p9hmPjA-3" value="生成文件唯一的key" style="rounded=1;whiteSpace=wrap;html=1;absoluteArcSize=1;arcSize=14;strokeWidth=2;fontSize=13;" vertex="1" parent="WIyWlLk6GJQsqaUBKTNV-1">
          <mxGeometry x="150" y="140" width="150" height="40" as="geometry" />
        </mxCell>
        <mxCell id="fye8WJAWWEqY-p9hmPjA-4" value="生成文件分片以及分片信息" style="rounded=1;whiteSpace=wrap;html=1;absoluteArcSize=1;arcSize=14;strokeWidth=2;fontSize=13;" vertex="1" parent="WIyWlLk6GJQsqaUBKTNV-1">
          <mxGeometry x="140" y="210" width="170" height="40" as="geometry" />
        </mxCell>
        <mxCell id="fye8WJAWWEqY-p9hmPjA-5" value="判断文件是否上传过？" style="strokeWidth=2;html=1;shape=mxgraph.flowchart.decision;whiteSpace=wrap;fontSize=13;" vertex="1" parent="WIyWlLk6GJQsqaUBKTNV-1">
          <mxGeometry x="130" y="280" width="190" height="60" as="geometry" />
        </mxCell>
        <mxCell id="fye8WJAWWEqY-p9hmPjA-6" value="上传分片" style="rounded=1;whiteSpace=wrap;html=1;absoluteArcSize=1;arcSize=14;strokeWidth=2;fontSize=13;" vertex="1" parent="WIyWlLk6GJQsqaUBKTNV-1">
          <mxGeometry x="175" y="370" width="100" height="40" as="geometry" />
        </mxCell>
        <mxCell id="fye8WJAWWEqY-p9hmPjA-7" value="文件合并" style="rounded=1;whiteSpace=wrap;html=1;absoluteArcSize=1;arcSize=14;strokeWidth=2;fontSize=13;" vertex="1" parent="WIyWlLk6GJQsqaUBKTNV-1">
          <mxGeometry x="175" y="530" width="100" height="40" as="geometry" />
        </mxCell>
        <mxCell id="fye8WJAWWEqY-p9hmPjA-8" value="断点续传" style="rounded=1;whiteSpace=wrap;html=1;absoluteArcSize=1;arcSize=14;strokeWidth=2;fontSize=13;" vertex="1" parent="WIyWlLk6GJQsqaUBKTNV-1">
          <mxGeometry x="420" y="450" width="100" height="40" as="geometry" />
        </mxCell>
        <mxCell id="fye8WJAWWEqY-p9hmPjA-9" value="是否都上传完成？" style="strokeWidth=2;html=1;shape=mxgraph.flowchart.decision;whiteSpace=wrap;fontSize=13;" vertex="1" parent="WIyWlLk6GJQsqaUBKTNV-1">
          <mxGeometry x="390" y="350" width="160" height="60" as="geometry" />
        </mxCell>
        <mxCell id="fye8WJAWWEqY-p9hmPjA-11" value="" style="endArrow=classic;html=1;rounded=0;exitX=0.5;exitY=1;exitDx=0;exitDy=0;exitPerimeter=0;entryX=0.5;entryY=0;entryDx=0;entryDy=0;strokeWidth=2;fontSize=13;" edge="1" parent="WIyWlLk6GJQsqaUBKTNV-1" source="fye8WJAWWEqY-p9hmPjA-2" target="fye8WJAWWEqY-p9hmPjA-3">
          <mxGeometry width="50" height="50" relative="1" as="geometry">
            <mxPoint x="370" y="220" as="sourcePoint" />
            <mxPoint x="420" y="170" as="targetPoint" />
          </mxGeometry>
        </mxCell>
        <mxCell id="fye8WJAWWEqY-p9hmPjA-12" value="" style="endArrow=classic;html=1;rounded=0;exitX=0.5;exitY=1;exitDx=0;exitDy=0;strokeWidth=2;fontSize=13;" edge="1" parent="WIyWlLk6GJQsqaUBKTNV-1" source="fye8WJAWWEqY-p9hmPjA-3" target="fye8WJAWWEqY-p9hmPjA-4">
          <mxGeometry width="50" height="50" relative="1" as="geometry">
            <mxPoint x="235" y="120" as="sourcePoint" />
            <mxPoint x="235" y="150" as="targetPoint" />
          </mxGeometry>
        </mxCell>
        <mxCell id="fye8WJAWWEqY-p9hmPjA-13" value="" style="endArrow=classic;html=1;rounded=0;entryX=0.5;entryY=0;entryDx=0;entryDy=0;entryPerimeter=0;exitX=0.5;exitY=1;exitDx=0;exitDy=0;strokeWidth=2;fontSize=13;" edge="1" parent="WIyWlLk6GJQsqaUBKTNV-1" source="fye8WJAWWEqY-p9hmPjA-4" target="fye8WJAWWEqY-p9hmPjA-5">
          <mxGeometry width="50" height="50" relative="1" as="geometry">
            <mxPoint x="390" y="200" as="sourcePoint" />
            <mxPoint x="235" y="220" as="targetPoint" />
          </mxGeometry>
        </mxCell>
        <mxCell id="fye8WJAWWEqY-p9hmPjA-14" value="" style="endArrow=classic;html=1;rounded=0;exitX=0.5;exitY=1;exitDx=0;exitDy=0;strokeWidth=2;fontSize=13;" edge="1" parent="WIyWlLk6GJQsqaUBKTNV-1" source="fye8WJAWWEqY-p9hmPjA-7" target="fye8WJAWWEqY-p9hmPjA-0">
          <mxGeometry width="50" height="50" relative="1" as="geometry">
            <mxPoint x="340" y="740" as="sourcePoint" />
            <mxPoint x="340" y="770" as="targetPoint" />
          </mxGeometry>
        </mxCell>
        <mxCell id="fye8WJAWWEqY-p9hmPjA-15" value="" style="endArrow=classic;html=1;rounded=0;entryX=0.5;entryY=0;entryDx=0;entryDy=0;exitX=0.5;exitY=1;exitDx=0;exitDy=0;exitPerimeter=0;strokeWidth=2;fontSize=13;" edge="1" parent="WIyWlLk6GJQsqaUBKTNV-1" source="fye8WJAWWEqY-p9hmPjA-18" target="fye8WJAWWEqY-p9hmPjA-7">
          <mxGeometry width="50" height="50" relative="1" as="geometry">
            <mxPoint x="340" y="560" as="sourcePoint" />
            <mxPoint x="340" y="590" as="targetPoint" />
          </mxGeometry>
        </mxCell>
        <mxCell id="fye8WJAWWEqY-p9hmPjA-16" value="" style="endArrow=classic;html=1;rounded=0;entryX=0.5;entryY=0;entryDx=0;entryDy=0;entryPerimeter=0;exitX=0.5;exitY=1;exitDx=0;exitDy=0;strokeWidth=2;fontSize=13;" edge="1" parent="WIyWlLk6GJQsqaUBKTNV-1" source="fye8WJAWWEqY-p9hmPjA-6" target="fye8WJAWWEqY-p9hmPjA-18">
          <mxGeometry width="50" height="50" relative="1" as="geometry">
            <mxPoint x="320" y="420" as="sourcePoint" />
            <mxPoint x="320" y="450" as="targetPoint" />
          </mxGeometry>
        </mxCell>
        <mxCell id="fye8WJAWWEqY-p9hmPjA-17" value="" style="endArrow=classic;html=1;rounded=0;exitX=0.5;exitY=1;exitDx=0;exitDy=0;exitPerimeter=0;strokeWidth=2;fontSize=13;" edge="1" parent="WIyWlLk6GJQsqaUBKTNV-1" source="fye8WJAWWEqY-p9hmPjA-5" target="fye8WJAWWEqY-p9hmPjA-6">
          <mxGeometry width="50" height="50" relative="1" as="geometry">
            <mxPoint x="265" y="290" as="sourcePoint" />
            <mxPoint x="265" y="320" as="targetPoint" />
          </mxGeometry>
        </mxCell>
        <mxCell id="fye8WJAWWEqY-p9hmPjA-18" value="所有分片是否都上传完成？" style="strokeWidth=2;html=1;shape=mxgraph.flowchart.decision;whiteSpace=wrap;fontSize=13;" vertex="1" parent="WIyWlLk6GJQsqaUBKTNV-1">
          <mxGeometry x="120" y="440" width="210" height="60" as="geometry" />
        </mxCell>
        <mxCell id="fye8WJAWWEqY-p9hmPjA-19" value="" style="endArrow=classic;html=1;rounded=0;exitX=1;exitY=0.5;exitDx=0;exitDy=0;exitPerimeter=0;entryX=0.5;entryY=0;entryDx=0;entryDy=0;entryPerimeter=0;edgeStyle=orthogonalEdgeStyle;strokeWidth=2;fontSize=13;" edge="1" parent="WIyWlLk6GJQsqaUBKTNV-1" source="fye8WJAWWEqY-p9hmPjA-5" target="fye8WJAWWEqY-p9hmPjA-9">
          <mxGeometry width="50" height="50" relative="1" as="geometry">
            <mxPoint x="235" y="350" as="sourcePoint" />
            <mxPoint x="235" y="440" as="targetPoint" />
          </mxGeometry>
        </mxCell>
        <mxCell id="fye8WJAWWEqY-p9hmPjA-20" value="" style="endArrow=classic;html=1;rounded=0;exitX=0.5;exitY=1;exitDx=0;exitDy=0;exitPerimeter=0;entryX=0.5;entryY=0;entryDx=0;entryDy=0;strokeWidth=2;fontSize=13;" edge="1" parent="WIyWlLk6GJQsqaUBKTNV-1" source="fye8WJAWWEqY-p9hmPjA-9" target="fye8WJAWWEqY-p9hmPjA-8">
          <mxGeometry width="50" height="50" relative="1" as="geometry">
            <mxPoint x="380" y="410" as="sourcePoint" />
            <mxPoint x="380" y="500" as="targetPoint" />
          </mxGeometry>
        </mxCell>
        <mxCell id="fye8WJAWWEqY-p9hmPjA-21" value="" style="endArrow=classic;html=1;rounded=0;exitX=0;exitY=0.5;exitDx=0;exitDy=0;entryX=1;entryY=0.5;entryDx=0;entryDy=0;entryPerimeter=0;strokeWidth=2;fontSize=13;" edge="1" parent="WIyWlLk6GJQsqaUBKTNV-1" source="fye8WJAWWEqY-p9hmPjA-8" target="fye8WJAWWEqY-p9hmPjA-18">
          <mxGeometry width="50" height="50" relative="1" as="geometry">
            <mxPoint x="245" y="360" as="sourcePoint" />
            <mxPoint x="245" y="450" as="targetPoint" />
          </mxGeometry>
        </mxCell>
      </root>
    </mxGraphModel>
  </diagram>
</mxfile>
